<svg id="visual" viewBox="0 0 1920 1080" width="1920" height="1080" xmlns="http://www.w3.org/2000/svg" xmlns:xlink="http://www.w3.org/1999/xlink" version="1.1"><rect x="0" y="0" width="1920" height="1080" fill="#001220"></rect><defs><linearGradient id="grad1_0" x1="43.8%" y1="0%" x2="100%" y2="100%"><stop offset="14.444444444444446%" stop-color="#001220" stop-opacity="1"></stop><stop offset="85.55555555555554%" stop-color="#001220" stop-opacity="1"></stop></linearGradient></defs><defs><linearGradient id="grad2_0" x1="0%" y1="0%" x2="56.3%" y2="100%"><stop offset="14.444444444444446%" stop-color="#001220" stop-opacity="1"></stop><stop offset="85.55555555555554%" stop-color="#001220" stop-opacity="1"></stop></linearGradient></defs><g transform="translate(1920, 0)"><path d="M0 810C-108.4 802.9 -216.9 795.8 -310 748.3C-403.1 700.9 -480.9 613 -523.3 523.3C-565.6 433.5 -572.5 342 -614.4 254.5C-656.3 167 -733.1 83.5 -810 0L0 0Z" fill="#FBAE3C"></path></g><g transform="translate(0, 1080)"><path d="M0 -810C89.7 -739.4 179.5 -668.8 254.5 -614.4C329.5 -560 389.7 -521.8 479.4 -479.4C569.1 -437.1 688.3 -390.6 748.3 -310C808.4 -229.4 809.2 -114.7 810 0L0 0Z" fill="#FBAE3C"></path></g></svg>