<svg id="visual" viewBox="0 0 1920 1080" width="1920" height="1080" xmlns="http://www.w3.org/2000/svg" xmlns:xlink="http://www.w3.org/1999/xlink" version="1.1"><g stroke-width="1" stroke-linejoin="bevel"><path d="M888.3 537L1042.7 549L851.3 392Z" fill="#37214a" stroke="#37214a"></path><path d="M1042.7 549L1094.7 367L851.3 392Z" fill="#231f42" stroke="#231f42"></path><path d="M1094.7 367L1029.7 160L851.3 392Z" fill="#4d204f" stroke="#4d204f"></path><path d="M1280 505L1261 376L1094.7 367Z" fill="#8b1843" stroke="#8b1843"></path><path d="M1094.7 367L1270 156L1029.7 160Z" fill="#4d204f" stroke="#4d204f"></path><path d="M668 757L886.3 719L888.3 537Z" fill="#37214a" stroke="#37214a"></path><path d="M888.3 537L886.3 719L1042.7 549Z" fill="#a62929" stroke="#a62929"></path><path d="M1042.7 549L1280 505L1094.7 367Z" fill="#a62929" stroke="#a62929"></path><path d="M886.3 719L1044.7 733L1042.7 549Z" fill="#a62929" stroke="#a62929"></path><path d="M1029.7 160L828.3 166L851.3 392Z" fill="#9b1d38" stroke="#9b1d38"></path><path d="M1306 708L1280 505L1042.7 549Z" fill="#00101c" stroke="#00101c"></path><path d="M828.3 166L631 379L851.3 392Z" fill="#781a4b" stroke="#781a4b"></path><path d="M851.3 392L607 517L888.3 537Z" fill="#121c37" stroke="#121c37"></path><path d="M631 379L607 517L851.3 392Z" fill="#8b1843" stroke="#8b1843"></path><path d="M1481.3 369L1270 156L1261 376Z" fill="#9b1d38" stroke="#9b1d38"></path><path d="M1261 376L1270 156L1094.7 367Z" fill="#121c37" stroke="#121c37"></path><path d="M1044.7 733L1306 708L1042.7 549Z" fill="#121c37" stroke="#121c37"></path><path d="M1280 505L1481.3 369L1261 376Z" fill="#631d4f" stroke="#631d4f"></path><path d="M607 517L668 757L888.3 537Z" fill="#8b1843" stroke="#8b1843"></path><path d="M886.3 719L1077.7 882L1044.7 733Z" fill="#37214a" stroke="#37214a"></path><path d="M1270 156L1061.7 0L1029.7 160Z" fill="#37214a" stroke="#37214a"></path><path d="M1029.7 160L877.3 0L828.3 166Z" fill="#071729" stroke="#071729"></path><path d="M828.3 166L608 179L631 379Z" fill="#00101c" stroke="#00101c"></path><path d="M631 379L440.7 501L607 517Z" fill="#631d4f" stroke="#631d4f"></path><path d="M637 0L608 179L828.3 166Z" fill="#00101c" stroke="#00101c"></path><path d="M1061.7 0L877.3 0L1029.7 160Z" fill="#9b1d38" stroke="#9b1d38"></path><path d="M836.3 886L1077.7 882L886.3 719Z" fill="#37214a" stroke="#37214a"></path><path d="M1044.7 733L1254 877L1306 708Z" fill="#9b1d38" stroke="#9b1d38"></path><path d="M668 757L836.3 886L886.3 719Z" fill="#9b1d38" stroke="#9b1d38"></path><path d="M1518.3 546L1481.3 369L1280 505Z" fill="#9b1d38" stroke="#9b1d38"></path><path d="M1460.3 144L1245 0L1270 156Z" fill="#00101c" stroke="#00101c"></path><path d="M1270 156L1245 0L1061.7 0Z" fill="#231f42" stroke="#231f42"></path><path d="M1077.7 882L1254 877L1044.7 733Z" fill="#071729" stroke="#071729"></path><path d="M1306 708L1518.3 546L1280 505Z" fill="#a62929" stroke="#a62929"></path><path d="M422.7 334L440.7 501L631 379Z" fill="#071729" stroke="#071729"></path><path d="M607 517L414.7 699L668 757Z" fill="#8b1843" stroke="#8b1843"></path><path d="M877.3 0L637 0L828.3 166Z" fill="#071729" stroke="#071729"></path><path d="M608 179L422.7 334L631 379Z" fill="#071729" stroke="#071729"></path><path d="M1469.3 728L1518.3 546L1306 708Z" fill="#781a4b" stroke="#781a4b"></path><path d="M414.7 699L614 864L668 757Z" fill="#a62929" stroke="#a62929"></path><path d="M668 757L614 864L836.3 886Z" fill="#631d4f" stroke="#631d4f"></path><path d="M405.7 168L422.7 334L608 179Z" fill="#37214a" stroke="#37214a"></path><path d="M1481.3 369L1460.3 144L1270 156Z" fill="#4d204f" stroke="#4d204f"></path><path d="M1511.3 0L1460.3 144L1720.7 184Z" fill="#a62929" stroke="#a62929"></path><path d="M1254 877L1469.3 728L1306 708Z" fill="#00101c" stroke="#00101c"></path><path d="M228.3 521L414.7 699L440.7 501Z" fill="#781a4b" stroke="#781a4b"></path><path d="M440.7 501L414.7 699L607 517Z" fill="#00101c" stroke="#00101c"></path><path d="M417.7 0L405.7 168L608 179Z" fill="#631d4f" stroke="#631d4f"></path><path d="M212.3 397L228.3 521L440.7 501Z" fill="#9b1d38" stroke="#9b1d38"></path><path d="M845.3 1080L1078.7 1080L1077.7 882Z" fill="#631d4f" stroke="#631d4f"></path><path d="M1077.7 882L1078.7 1080L1254 877Z" fill="#37214a" stroke="#37214a"></path><path d="M1254 877L1520.3 891L1469.3 728Z" fill="#8b1843" stroke="#8b1843"></path><path d="M845.3 1080L1077.7 882L836.3 886Z" fill="#9b1d38" stroke="#9b1d38"></path><path d="M602 1080L836.3 886L614 864Z" fill="#781a4b" stroke="#781a4b"></path><path d="M602 1080L845.3 1080L836.3 886Z" fill="#231f42" stroke="#231f42"></path><path d="M1720.7 184L1460.3 144L1481.3 369Z" fill="#4d204f" stroke="#4d204f"></path><path d="M1460.3 144L1511.3 0L1245 0Z" fill="#9b1d38" stroke="#9b1d38"></path><path d="M1078.7 1080L1271 1080L1254 877Z" fill="#121c37" stroke="#121c37"></path><path d="M637 0L417.7 0L608 179Z" fill="#00101c" stroke="#00101c"></path><path d="M1271 1080L1520.3 891L1254 877Z" fill="#a62929" stroke="#a62929"></path><path d="M1668.7 718L1699.7 571L1518.3 546Z" fill="#37214a" stroke="#37214a"></path><path d="M414.7 699L404.7 907L614 864Z" fill="#631d4f" stroke="#631d4f"></path><path d="M248.3 874L404.7 907L414.7 699Z" fill="#121c37" stroke="#121c37"></path><path d="M1668.7 718L1518.3 546L1469.3 728Z" fill="#8b1843" stroke="#8b1843"></path><path d="M1518.3 546L1724.7 326L1481.3 369Z" fill="#37214a" stroke="#37214a"></path><path d="M404.7 907L602 1080L614 864Z" fill="#121c37" stroke="#121c37"></path><path d="M1520.3 891L1668.7 718L1469.3 728Z" fill="#121c37" stroke="#121c37"></path><path d="M212.3 397L422.7 334L231.3 168Z" fill="#071729" stroke="#071729"></path><path d="M212.3 397L440.7 501L422.7 334Z" fill="#121c37" stroke="#121c37"></path><path d="M1699.7 571L1724.7 326L1518.3 546Z" fill="#781a4b" stroke="#781a4b"></path><path d="M231.3 168L422.7 334L405.7 168Z" fill="#631d4f" stroke="#631d4f"></path><path d="M1724.7 326L1720.7 184L1481.3 369Z" fill="#071729" stroke="#071729"></path><path d="M225.3 0L231.3 168L405.7 168Z" fill="#121c37" stroke="#121c37"></path><path d="M0 549L188.3 689L228.3 521Z" fill="#9b1d38" stroke="#9b1d38"></path><path d="M228.3 521L188.3 689L414.7 699Z" fill="#231f42" stroke="#231f42"></path><path d="M1271 1080L1506.3 1080L1520.3 891Z" fill="#37214a" stroke="#37214a"></path><path d="M1520.3 891L1718.7 885L1668.7 718Z" fill="#37214a" stroke="#37214a"></path><path d="M216.3 1080L437.7 1080L404.7 907Z" fill="#231f42" stroke="#231f42"></path><path d="M404.7 907L437.7 1080L602 1080Z" fill="#4d204f" stroke="#4d204f"></path><path d="M188.3 689L248.3 874L414.7 699Z" fill="#121c37" stroke="#121c37"></path><path d="M0 194L0 359L212.3 397Z" fill="#9b1d38" stroke="#9b1d38"></path><path d="M212.3 397L0 549L228.3 521Z" fill="#8b1843" stroke="#8b1843"></path><path d="M417.7 0L225.3 0L405.7 168Z" fill="#9b1d38" stroke="#9b1d38"></path><path d="M1707.7 1080L1718.7 885L1520.3 891Z" fill="#4d204f" stroke="#4d204f"></path><path d="M1920 733L1920 573L1699.7 571Z" fill="#781a4b" stroke="#781a4b"></path><path d="M1920 573L1920 343L1724.7 326Z" fill="#781a4b" stroke="#781a4b"></path><path d="M1920 168L1726.7 0L1720.7 184Z" fill="#071729" stroke="#071729"></path><path d="M1720.7 184L1726.7 0L1511.3 0Z" fill="#8b1843" stroke="#8b1843"></path><path d="M1920 573L1724.7 326L1699.7 571Z" fill="#231f42" stroke="#231f42"></path><path d="M1724.7 326L1920 168L1720.7 184Z" fill="#9b1d38" stroke="#9b1d38"></path><path d="M1920 733L1699.7 571L1668.7 718Z" fill="#231f42" stroke="#231f42"></path><path d="M1506.3 1080L1707.7 1080L1520.3 891Z" fill="#231f42" stroke="#231f42"></path><path d="M1718.7 885L1920 733L1668.7 718Z" fill="#37214a" stroke="#37214a"></path><path d="M0 194L212.3 397L231.3 168Z" fill="#37214a" stroke="#37214a"></path><path d="M188.3 689L0 735L248.3 874Z" fill="#37214a" stroke="#37214a"></path><path d="M0 359L0 549L212.3 397Z" fill="#631d4f" stroke="#631d4f"></path><path d="M1920 343L1920 168L1724.7 326Z" fill="#4d204f" stroke="#4d204f"></path><path d="M1920 884L1920 733L1718.7 885Z" fill="#631d4f" stroke="#631d4f"></path><path d="M248.3 874L216.3 1080L404.7 907Z" fill="#631d4f" stroke="#631d4f"></path><path d="M0 928L216.3 1080L248.3 874Z" fill="#781a4b" stroke="#781a4b"></path><path d="M0 0L0 194L231.3 168Z" fill="#37214a" stroke="#37214a"></path><path d="M0 549L0 735L188.3 689Z" fill="#781a4b" stroke="#781a4b"></path><path d="M1920 168L1920 0L1726.7 0Z" fill="#37214a" stroke="#37214a"></path><path d="M1920 1080L1920 884L1718.7 885Z" fill="#231f42" stroke="#231f42"></path><path d="M225.3 0L0 0L231.3 168Z" fill="#37214a" stroke="#37214a"></path><path d="M0 735L0 928L248.3 874Z" fill="#231f42" stroke="#231f42"></path><path d="M1707.7 1080L1920 1080L1718.7 885Z" fill="#781a4b" stroke="#781a4b"></path><path d="M0 928L0 1080L216.3 1080Z" fill="#071729" stroke="#071729"></path></g></svg>